PathFileType	4	(X/Y/Z)	C:\Users\Hakeem\Desktop\Python Projects\BasketballMotionAnalysis\Sports2D_Results\free_throw_Sports2D\free_throw_Sports2D_px_person00.trc
DataRate	CameraRate	NumFrames	NumMarkers	Units	OrigDataRate	OrigDataStartFrame	OrigNumFrames
30.0	30.0	13	22	m	30.0	75	90
Frame#	Time	Hip			RHip			RKnee			RAnkle			RBigToe			RSmallToe			RHeel			LHip			LKnee			LAnkle			LBigToe			LSmallToe			LHeel			Neck			Head			Nose			RShoulder			RElbow			RWrist			LShoulder			LElbow			LWrist			
		X1	Y1	Z1	X2	Y2	Z2	X3	Y3	Z3	X4	Y4	Z4	X5	Y5	Z5	X6	Y6	Z6	X7	Y7	Z7	X8	Y8	Z8	X9	Y9	Z9	X10	Y10	Z10	X11	Y11	Z11	X12	Y12	Z12	X13	Y13	Z13	X14	Y14	Z14	X15	Y15	Z15	X16	Y16	Z16	X17	Y17	Z17	X18	Y18	Z18	X19	Y19	Z19	X20	Y20	Z20	X21	Y21	Z21	X22	Y22	Z22
75	2.528089887640449	536.265334524732	650.811311371853	0.0	528.7223183458689	650.6674405899298	0.0	513.8551456268722	747.9062777845337	0.0	495.7054283869378	844.5686700769406	0.0	525.1104843754634	863.3737906988837	0.0	514.6030477973045	865.8753082787648	0.0	487.9601998704621	859.6170015518095	0.0	539.3134266208799	650.0747245099586	0.0	528.100222611266	745.5820374320587	0.0	516.3991549711944	830.1462608675687	0.0	549.3057716774501	854.1544281100453	0.0	547.4348366008993	847.5463113318971	0.0	509.6448476152551	845.1265215445645	0.0	536.0764896177503	512.533600871831	0.0	543.7193615813005	445.7751868615778	0.0	563.0056128756066	475.513228562828	0.0	526.1028284757824	525.1747009859477	0.0	478.4922802905587	562.5605567324957	0.0	425.8537051158912	590.6481042098815	0.0	532.0437539971527	528.0230590591675	0.0	496.0512312661548	576.6661183721867	0.0	463.4032763251463	627.4633979864327	0.0
76	2.561797752808989	535.4742931786764	651.4569023348189	0.0	526.80255630777	651.3997822117595	0.0	513.073250826964	748.0323430983786	0.0	495.25985768392195	844.5824610402271	0.0	524.915352486227	863.1890050855258	0.0	514.7032986952406	865.2900104789592	0.0	488.2432904159622	859.5691163101937	0.0	538.8484067693652	650.9377809617683	0.0	526.9900888238194	745.4783919397228	0.0	515.7521759613815	830.7886809082569	0.0	549.3023125435788	854.1316780863694	0.0	547.3157056230262	847.813980004994	0.0	509.63595789949954	845.3392712682129	0.0	537.0705906953109	512.9955784191933	0.0	543.432610217308	446.5665741687128	0.0	562.8437149567958	476.04753296622584	0.0	526.1647389666584	526.5968018078236	0.0	480.73775864013584	567.2648800888915	0.0	430.6865727929695	601.1376229636743	0.0	534.6341944161051	529.0664970507294	0.0	498.7148947731194	582.0937811097255	0.0	468.6390384460687	634.1620403354751	0.0
77	2.595505617977528	534.8932536368891	652.7263567821878	0.0	524.9702537029365	653.0370593480441	0.0	511.9564658285829	748.7828273861317	0.0	495.04115594366726	844.8665114969833	0.0	525.0974505475556	863.1184217856367	0.0	515.0865291293751	865.1047662537908	0.0	488.0400784489129	859.5131388237604	0.0	538.8217764719848	652.7744542200485	0.0	525.2566433722636	745.5633316421761	0.0	514.8802686457944	831.7290524901226	0.0	549.4652673544292	853.9532965156671	0.0	547.0560937507448	847.778608582005	0.0	509.4918671426414	845.4081059250111	0.0	537.9591504418481	513.434416854479	0.0	542.5037791277733	447.4403877579961	0.0	562.4681595610972	476.48222694890393	0.0	526.1834935528624	528.8759004379496	0.0	484.13763629809387	574.280427353993	0.0	438.75057478354574	614.8666190633081	0.0	536.5992347173631	530.2627580025076	0.0	504.71905170063496	587.3779080518159	0.0	474.42452964638494	639.6529779138395	0.0
78	2.629213483146067	534.3978052328536	653.5803711794435	0.0	523.4583896032085	654.988244338417	0.0	510.85251286331356	749.5938049600743	0.0	494.76122079706465	845.1291818793181	0.0	525.8998142601693	863.2980758270296	0.0	515.6866950823791	865.6699068012715	0.0	487.2041764979141	859.4203723931075	0.0	539.0530171659016	654.8222365537009	0.0	523.8293402264856	746.1836940140175	0.0	514.1605388487939	832.5070669449385	0.0	550.1784988511773	853.9170354043466	0.0	546.6587978317222	847.6663936368063	0.0	509.2647467884968	845.4871424758325	0.0	538.1680914090239	513.5818230507832	0.0	541.2185560361224	448.00789646172814	0.0	562.1601954740515	476.3597990216652	0.0	526.2066618438434	531.2955791672096	0.0	488.8675919368736	582.6114811021366	0.0	450.7404530575892	629.5349171380623	0.0	537.3193481924272	531.160800954602	0.0	512.9443443573018	590.8127955582362	0.0	483.9043931014762	641.4066791229991	0.0
79	2.662921348314607	533.559647538882	654.0716163328923	0.0	522.337839743592	657.0614273812173	0.0	509.8784159876918	749.9411036358827	0.0	494.2725636725722	844.978111258206	0.0	526.4140800241057	863.9858359132523	0.0	515.8997609552232	866.9115155246163	0.0	486.28462050639115	859.2143974577489	0.0	539.0368548727577	656.88299554031	0.0	523.3726821016039	747.3609987243192	0.0	513.860461978343	832.9121123598201	0.0	550.6283493093376	854.2492382087945	0.0	545.8737330451747	847.9873161246533	0.0	508.96553343153835	845.8238074933529	0.0	537.6378192793691	513.5934842603242	0.0	540.443857516982	448.3068078013865	0.0	561.9284215887187	475.9156559906152	0.0	525.8237805939809	533.4426973368475	0.0	495.7212542332312	590.5009559328378	0.0	467.14740172170906	642.7243273482857	0.0	536.7955187039881	532.0323020126425	0.0	520.192554635272	592.9395630491582	0.0	501.74472336483797	641.2895130158289	0.0
80	2.696629213483146	531.9359816092996	655.415157330891	0.0	521.7913912364664	659.51151980055	0.0	509.1129370522656	750.1505691340944	0.0	493.9115260651988	844.3230757876039	0.0	525.8589782628138	865.1764372626071	0.0	514.8805005238779	868.0833399351745	0.0	485.90395118239985	858.8841212094138	0.0	538.4187182461051	659.5111263366268	0.0	523.6390964989677	748.941353236494	0.0	513.8074764488397	833.2650631470311	0.0	549.6336035145216	854.6431996819742	0.0	544.3675265726066	848.8896541444806	0.0	508.62873873308223	846.3579061682047	0.0	536.7046864795137	513.6674050372254	0.0	540.1174968908143	448.64968429756027	0.0	561.479704806758	475.8202669297635	0.0	524.9847141035542	535.3374259348519	0.0	504.8617809110191	596.7727099283921	0.0	487.5164179704603	653.0082703859794	0.0	534.88046583405	532.9951867470495	0.0	524.0376064398365	595.1080438484639	0.0	522.7621970079746	644.2945292037786	0.0
81	2.730337078651685	529.7328096644665	657.5450353617534	0.0	521.7164576127593	661.618120399794	0.0	508.7400844594121	750.5324248941488	0.0	493.80980422035583	843.6461820481953	0.0	524.8595995804758	866.4763936413763	0.0	513.0927474095639	868.6543684909421	0.0	485.73514960841686	858.7380174645285	0.0	537.2457323592826	661.9329901714792	0.0	524.1248208373295	750.3805439822195	0.0	513.6677822887641	833.7904539699014	0.0	547.6693659033484	854.8411268870277	0.0	542.7646368012718	849.9199623332327	0.0	508.4776687976695	846.8639465991744	0.0	535.7358984673865	513.7592748028785	0.0	539.4093865118762	449.05880061580666	0.0	560.8364441165504	476.2614202683291	0.0	524.4716239370523	536.873575458727	0.0	515.2038646270621	601.1988674175374	0.0	510.9020607245772	660.3816071257913	0.0	531.7591807378718	533.5386507579886	0.0	525.6785406357174	597.3070197866281	0.0	536.935396189074	650.9915089748704	0.0
82	2.764044943820225	527.7521686066463	658.9804779919332	0.0	521.6880353688259	662.2787836327827	0.0	508.9201106653675	750.8609725214747	0.0	493.7239434554516	843.8919716025214	0.0	525.01036187551	867.3566355308916	0.0	512.7028304650279	868.777619860068	0.0	485.2620607090026	859.189739274923	0.0	535.7764292385141	662.491584173621	0.0	524.6691240412202	750.9211180357814	0.0	513.5273319519531	834.199352541131	0.0	546.5322748908889	854.977827522748	0.0	542.3264725975921	850.4957654407442	0.0	508.4751121106601	847.1904351136579	0.0	534.8230919155837	513.742293815288	0.0	538.4267972440298	449.33738442966694	0.0	560.1367543554228	477.04925473901255	0.0	524.9721060834378	537.7424946416157	0.0	525.5885234849319	603.7108909867401	0.0	535.8848725011162	664.3742059898971	0.0	527.9428745511857	533.4133796126442	0.0	527.8315655608292	598.570132948289	0.0	544.9023455068528	656.4270763357733	0.0
83	2.797752808988764	526.6821153380233	659.2234471411531	0.0	521.6795906149222	661.482396294433	0.0	509.63391066586775	751.0088611072995	0.0	493.7133681693032	845.3074410953095	0.0	526.8170540054253	867.4690106419243	0.0	514.8780977846494	868.5641201654073	0.0	484.74415653122463	860.0129894301842	0.0	534.2337907020233	661.0096523907057	0.0	525.1616085692565	750.4274788818709	0.0	513.6326654238952	834.3084339838684	0.0	546.927619821618	855.0827022119392	0.0	543.1061774200114	850.3102992649066	0.0	508.10806042892887	847.331894018745	0.0	533.7540764327186	513.7121307455807	0.0	537.7418565140343	449.5517215940382	0.0	559.114080237217	478.068659598841	0.0	526.1088585308927	538.1080628333962	0.0	535.5179805764501	604.2687608796148	0.0	560.0606038034701	663.3392442086603	0.0	524.128730419242	533.2160381918286	0.0	530.4869053002329	598.7578224769819	0.0	551.9804163079906	656.9716281653878	0.0
84	2.831460674157303	526.482771935493	658.9921859089667	0.0	521.7601481368338	659.9428384968287	0.0	510.4763564105463	751.0890460219339	0.0	494.0747557633257	846.7390615354789	0.0	528.596683784091	867.0154227376042	0.0	517.6057907660671	868.0300491002358	0.0	484.58509697712384	860.2690587164152	0.0	532.9383997381148	658.7397421165907	0.0	525.3951623132641	749.5910266815196	0.0	513.8571953648648	834.4381422360574	0.0	547.8188812681814	854.9522725446277	0.0	543.9439236959329	849.4618702899742	0.0	507.28904503985234	847.3446299982855	0.0	532.4014442203251	513.8473030435786	0.0	537.0106957318173	450.14261549777797	0.0	557.680879123005	479.04427478520904	0.0	526.9600547496756	538.5843965287436	0.0	544.641176553367	603.3206935701822	0.0	580.7784271224316	656.836314047395	0.0	521.1792164273731	533.4633238350161	0.0	531.2957522845506	598.5068748532236	0.0	555.8233004400205	654.0283763830191	0.0
85	2.865168539325843	526.6319708906531	658.776226134823	0.0	521.8456499833521	658.5674746403774	0.0	511.14772860866026	751.1515088668684	0.0	494.71723392741933	847.0419051341567	0.0	528.7901396828248	866.617358097267	0.0	518.3895480005132	867.6432860419225	0.0	484.76550163564775	859.4575527438623	0.0	532.2994132168101	657.0091703236711	0.0	525.3684587028157	749.1394601127233	0.0	513.947862270476	834.6728898860476	0.0	547.9450290126216	854.53833912254	0.0	544.084531467661	848.4143637402534	0.0	506.6334613752495	847.0924042273462	0.0	531.010374876761	514.0681783304732	0.0	535.770018789922	451.1544675203735	0.0	556.4629784763664	479.7032828197055	0.0	527.3535485069342	539.317983302621	0.0	552.0790220509266	601.3171077720142	0.0	596.7582870249504	646.7559468098959	0.0	519.4117361023958	533.9530583108854	0.0	529.4945177534908	598.0950606219737	0.0	553.6358580768518	650.5875243216883	0.0
86	2.898876404494382	526.9560862429903	658.501175120953	0.0	522.2625229678613	657.9659432606945	0.0	512.137651629004	751.1321376728215	0.0	495.37295130108	846.560388905109	0.0	528.289722815227	866.516861493055	0.0	517.3795576018209	867.9869520406808	0.0	485.25094957935215	858.3772913283032	0.0	532.3188716727401	656.2189494017833	0.0	525.2787865527076	748.8908403355624	0.0	513.9447856404431	834.4524452779378	0.0	547.2643254632678	853.8575491560637	0.0	543.6546584105192	847.4584876836823	0.0	506.67422029836985	846.2717067800412	0.0	530.0131473027095	514.2809821005325	0.0	534.6530278504873	451.86974430004227	0.0	555.9949351700866	480.3314577551822	0.0	527.765898097471	539.7333853457109	0.0	556.9662659550835	597.9957974929915	0.0	608.1111526928662	635.3199402929033	0.0	518.4390530785222	534.3332687732449	0.0	528.1237481562619	596.880136617428	0.0	553.4956892548133	645.7688527549201	0.0
87	2.932584269662921	527.5618104113619	658.0290311498259	0.0	523.2124909965635	657.7909653171056	0.0	513.8950291654778	751.014630670325	0.0	495.9954214672645	846.2087420614606	0.0	528.7416236173307	866.2860826781435	0.0	516.5711822943869	868.6476951802301	0.0	485.99129739399154	857.9717329057445	0.0	532.6368521653519	655.7627924083514	0.0	525.2305352273873	748.266903123657	0.0	514.0811006528049	833.5412651618433	0.0	546.7597525234089	852.9952369332285	0.0	543.2196519126986	846.5887114441227	0.0	507.22127100103774	845.0613955392164	0.0	529.646175057481	514.4954629813096	0.0	534.3309356609435	451.83012568589197	0.0	556.1118596160767	481.18345333591	0.0	528.3707462951317	539.4902802884986	0.0	560.0421966010935	593.7591629207716	0.0	615.5402931353899	624.0264782791744	0.0	518.215372594825	534.4060946022113	0.0	531.8377254472822	594.0207013233169	0.0	566.5617865213583	635.7155841103661	0.0
